# xmcd
#
# Track frame offsets:
#	150
#	18883
#	38177
#	57841
#	76652
#	90807
#	106774
#	123552
#	144350
#
# Disc length: 2154 seconds
#
# Revision: 2
# Processed by: cddbd v1.5.2PL0 Copyright (c) Steve Scherf et al.
# Submitted via: audiograbber 1.83.01
#
DISCID=5c086809
DTITLE=Fasttrax Country Karaoke - FTX-C402
DYEAR=2011
DGENRE=Karaoke
TTITLE0=Tim McGraw - Felt Good On My Lips
TTITLE1=Jason Aldean and Kelly Clarkson - Dont You Wanna Stay
TTITLE2=Taylor Swift - Sparks Fly
TTITLE3=Kenny Chesney - Somewhere With You
TTITLE4=Blake Shelton - Who Are You When Im Not Looking
TTITLE5=Reba McEntire - Turn On The Radio
TTITLE6=Keith Urban - Put You In A Song
TTITLE7=Sugarland - Little Miss
TTITLE8=Billy Currington - Let Me Down Easy
EXTD=
EXTT0=
EXTT1=
EXTT2=
EXTT3=
EXTT4=
EXTT5=
EXTT6=
EXTT7=
EXTT8=
PLAYORDER=
